<?xml version="1.0" encoding="UTF-8"?>
<svg xmlns="http://www.w3.org/2000/svg" xmlns:xlink="http://www.w3.org/1999/xlink" width="1200pt" height="1200pt" viewBox="0 0 1200 1200" version="1.1">
<g id="surface1">
<rect x="0" y="0" width="1200" height="1200" style="fill:rgb(46.665955%,73.332214%,24.705505%);fill-opacity:1;stroke:none;"/>
<rect x="0" y="0" width="1200" height="1200" style="fill:rgb(24.705505%,30.587769%,73.332214%);fill-opacity:1;stroke:none;"/>
<path style=" stroke:none;fill-rule:nonzero;fill:rgb(96.861267%,96.861267%,96.469116%);fill-opacity:1;" d="M 1062.691406 387.355469 C 1062.691406 374.71875 1052.445313 364.472656 1039.804688 364.472656 C 1027.167969 364.472656 1016.921875 374.71875 1016.921875 387.355469 C 1016.921875 399.996094 1027.167969 410.242188 1039.804688 410.242188 C 1052.445313 410.242188 1062.691406 399.996094 1062.691406 387.355469 Z M 1039.804688 398.796875 C 1033.496094 398.796875 1028.363281 393.664063 1028.363281 387.355469 C 1028.363281 381.046875 1033.496094 375.914063 1039.804688 375.914063 C 1046.117188 375.914063 1051.25 381.046875 1051.25 387.355469 C 1051.25 393.664063 1046.117188 398.796875 1039.804688 398.796875 Z M 1039.804688 398.796875 "/>
<path style=" stroke:none;fill-rule:nonzero;fill:rgb(96.861267%,96.861267%,96.469116%);fill-opacity:1;" d="M 1046.671875 387.355469 C 1046.671875 391.148438 1043.597656 394.222656 1039.804688 394.222656 C 1036.015625 394.222656 1032.941406 391.148438 1032.941406 387.355469 C 1032.941406 383.566406 1036.015625 380.492188 1039.804688 380.492188 C 1043.597656 380.492188 1046.671875 383.566406 1046.671875 387.355469 Z M 1046.671875 387.355469 "/>
<path style=" stroke:none;fill-rule:nonzero;fill:rgb(96.861267%,96.861267%,96.469116%);fill-opacity:1;" d="M 1177.113281 364.472656 C 1164.476563 364.472656 1154.230469 374.71875 1154.230469 387.355469 C 1154.230469 399.996094 1164.476563 410.242188 1177.113281 410.242188 C 1189.753906 410.242188 1200 399.996094 1200 387.355469 C 1200 374.71875 1189.753906 364.472656 1177.113281 364.472656 Z M 1176.542969 398.796875 C 1170.234375 398.796875 1165.101563 393.664063 1165.101563 387.355469 C 1165.101563 381.046875 1170.234375 375.914063 1176.542969 375.914063 C 1182.851563 375.914063 1187.984375 381.046875 1187.984375 387.355469 C 1187.984375 393.664063 1182.851563 398.796875 1176.542969 398.796875 Z M 1176.542969 398.796875 "/>
<path style=" stroke:none;fill-rule:nonzero;fill:rgb(96.861267%,96.861267%,96.469116%);fill-opacity:1;" d="M 1183.410156 387.355469 C 1183.410156 391.148438 1180.335938 394.222656 1176.542969 394.222656 C 1172.75 394.222656 1169.675781 391.148438 1169.675781 387.355469 C 1169.675781 383.566406 1172.75 380.492188 1176.542969 380.492188 C 1180.335938 380.492188 1183.410156 383.566406 1183.410156 387.355469 Z M 1183.410156 387.355469 "/>
<path style=" stroke:none;fill-rule:nonzero;fill:rgb(96.861267%,96.861267%,96.469116%);fill-opacity:1;" d="M 1068.414063 387.355469 L 1148.507813 387.355469 C 1148.507813 376.023438 1155.148438 366.238281 1164.726563 361.609375 L 1052.195313 361.609375 C 1061.769531 366.238281 1068.414063 376.023438 1068.414063 387.355469 Z M 1068.414063 387.355469 "/>
<path style=" stroke:none;fill-rule:nonzero;fill:rgb(96.861267%,96.861267%,96.469116%);fill-opacity:1;" d="M 1068.414063 536.109375 L 1148.507813 536.109375 L 1148.507813 393.078125 L 1068.414063 393.078125 Z M 1131.34375 404.519531 L 1137.066406 404.519531 L 1137.066406 524.664063 L 1131.34375 524.664063 Z M 1114.183594 404.519531 L 1119.902344 404.519531 L 1119.902344 524.664063 L 1114.183594 524.664063 Z M 1097.019531 404.519531 L 1102.738281 404.519531 L 1102.738281 524.664063 L 1097.019531 524.664063 Z M 1079.855469 404.519531 L 1085.574219 404.519531 L 1085.574219 524.664063 L 1079.855469 524.664063 Z M 1079.855469 404.519531 "/>
<path style=" stroke:none;fill-rule:nonzero;fill:rgb(96.861267%,96.861267%,96.469116%);fill-opacity:1;" d="M 1068.414063 541.828125 L 1051.25 547.550781 L 1051.25 558.992188 L 1165.671875 558.992188 L 1165.671875 547.550781 L 1148.507813 541.828125 Z M 1068.414063 541.828125 "/>
<path style=" stroke:none;fill-rule:nonzero;fill:rgb(96.861267%,96.861267%,96.469116%);fill-opacity:1;" d="M 45.769531 387.355469 C 45.769531 374.71875 35.523438 364.472656 22.886719 364.472656 C 10.246094 364.472656 0 374.71875 0 387.355469 C 0 399.996094 10.246094 410.242188 22.886719 410.242188 C 35.523438 410.242188 45.769531 399.996094 45.769531 387.355469 Z M 22.886719 398.796875 C 16.574219 398.796875 11.441406 393.664063 11.441406 387.355469 C 11.441406 381.046875 16.574219 375.914063 22.886719 375.914063 C 29.195313 375.914063 34.328125 381.046875 34.328125 387.355469 C 34.328125 393.664063 29.195313 398.796875 22.886719 398.796875 Z M 22.886719 398.796875 "/>
<path style=" stroke:none;fill-rule:nonzero;fill:rgb(96.861267%,96.861267%,96.469116%);fill-opacity:1;" d="M 29.75 387.355469 C 29.75 391.148438 26.675781 394.222656 22.886719 394.222656 C 19.09375 394.222656 16.019531 391.148438 16.019531 387.355469 C 16.019531 383.566406 19.09375 380.492188 22.886719 380.492188 C 26.675781 380.492188 29.75 383.566406 29.75 387.355469 Z M 29.75 387.355469 "/>
<path style=" stroke:none;fill-rule:nonzero;fill:rgb(96.861267%,96.861267%,96.469116%);fill-opacity:1;" d="M 160.195313 364.472656 C 147.554688 364.472656 137.308594 374.71875 137.308594 387.355469 C 137.308594 399.996094 147.554688 410.242188 160.195313 410.242188 C 172.832031 410.242188 183.078125 399.996094 183.078125 387.355469 C 183.078125 374.71875 172.832031 364.472656 160.195313 364.472656 Z M 159.621094 398.796875 C 153.3125 398.796875 148.179688 393.664063 148.179688 387.355469 C 148.179688 381.046875 153.3125 375.914063 159.621094 375.914063 C 165.929688 375.914063 171.0625 381.046875 171.0625 387.355469 C 171.0625 393.664063 165.929688 398.796875 159.621094 398.796875 Z M 159.621094 398.796875 "/>
<path style=" stroke:none;fill-rule:nonzero;fill:rgb(96.861267%,96.861267%,96.469116%);fill-opacity:1;" d="M 166.488281 387.355469 C 166.488281 391.148438 163.414063 394.222656 159.621094 394.222656 C 155.828125 394.222656 152.757813 391.148438 152.757813 387.355469 C 152.757813 383.566406 155.828125 380.492188 159.621094 380.492188 C 163.414063 380.492188 166.488281 383.566406 166.488281 387.355469 Z M 166.488281 387.355469 "/>
<path style=" stroke:none;fill-rule:nonzero;fill:rgb(96.861267%,96.861267%,96.469116%);fill-opacity:1;" d="M 51.492188 387.355469 L 131.585938 387.355469 C 131.585938 376.023438 138.230469 366.238281 147.804688 361.609375 L 35.273438 361.609375 C 44.851563 366.238281 51.492188 376.023438 51.492188 387.355469 Z M 51.492188 387.355469 "/>
<path style=" stroke:none;fill-rule:nonzero;fill:rgb(96.861267%,96.861267%,96.469116%);fill-opacity:1;" d="M 51.492188 536.109375 L 131.585938 536.109375 L 131.585938 393.078125 L 51.492188 393.078125 Z M 114.425781 404.519531 L 120.144531 404.519531 L 120.144531 524.664063 L 114.425781 524.664063 Z M 97.261719 404.519531 L 102.980469 404.519531 L 102.980469 524.664063 L 97.261719 524.664063 Z M 80.097656 404.519531 L 85.816406 404.519531 L 85.816406 524.664063 L 80.097656 524.664063 Z M 62.933594 404.519531 L 68.65625 404.519531 L 68.65625 524.664063 L 62.933594 524.664063 Z M 62.933594 404.519531 "/>
<path style=" stroke:none;fill-rule:nonzero;fill:rgb(96.861267%,96.861267%,96.469116%);fill-opacity:1;" d="M 51.492188 541.828125 L 34.328125 547.550781 L 34.328125 558.992188 L 148.75 558.992188 L 148.75 547.550781 L 131.585938 541.828125 Z M 51.492188 541.828125 "/>
<path style=" stroke:none;fill-rule:nonzero;fill:rgb(100%,100%,100%);fill-opacity:1;" d="M 1263.203125 419.851563 L 1263.203125 441.960938 L -63.203125 441.960938 L -63.203125 419.851563 Z M 1263.203125 419.851563 "/>
<path style=" stroke:none;fill-rule:nonzero;fill:rgb(100%,100%,100%);fill-opacity:1;" d="M 1263.203125 676.027344 L 1263.203125 698.132813 L -63.203125 698.132813 L -63.203125 676.027344 Z M 1263.203125 676.027344 "/>
<path style=" stroke:none;fill-rule:nonzero;fill:rgb(96.998596%,96.998596%,94.088745%);fill-opacity:1;" d="M 175.46875 471.382813 C 174.960938 470.367188 174.554688 469.757813 174.554688 468.535156 C 174.554688 465.894531 177.703125 466.707031 177.703125 463.960938 C 177.703125 460.503906 173.738281 460.503906 171.199219 460.503906 L 147.714844 460.503906 C 145.070313 460.503906 141.105469 460.300781 141.105469 463.960938 C 141.105469 465.589844 141.917969 465.996094 143.140625 466.707031 C 145.578125 468.128906 145.78125 468.839844 147.003906 471.382813 L 173.332031 524.246094 C 174.042969 525.871094 174.65625 526.585938 174.65625 528.414063 C 174.65625 530.855469 171.199219 530.753906 171.199219 533.292969 C 171.199219 537.054688 175.773438 536.546875 178.210938 536.546875 L 201.898438 536.546875 C 204.238281 536.546875 208.203125 536.546875 208.203125 533.292969 C 208.203125 531.464844 207.085938 530.855469 205.660156 530.140625 C 203.730469 529.125 203.324219 528.007813 202.40625 526.175781 Z M 187.363281 486.023438 L 194.988281 474.027344 C 197.019531 470.875 198.953125 468.636719 202.304688 466.707031 C 203.933594 465.894531 205.660156 465.179688 205.660156 463.046875 C 205.660156 460.605469 202.40625 460.503906 200.78125 460.503906 L 187.160156 460.503906 C 185.734375 460.503906 184.414063 460.402344 183.296875 461.523438 C 182.789063 462.03125 182.480469 462.84375 182.480469 463.554688 C 182.480469 465.28125 183.601563 465.894531 184.921875 466.605469 C 186.957031 467.621094 188.175781 468.839844 188.175781 471.28125 C 188.175781 473.414063 186.957031 475.042969 185.835938 476.871094 L 184.3125 479.820313 Z M 161.132813 509.199219 L 151.882813 524.246094 C 149.847656 527.398438 148.222656 529.226563 144.664063 530.652344 C 143.140625 531.261719 141.816406 531.871094 141.816406 533.800781 C 141.816406 536.445313 144.96875 536.546875 146.902344 536.546875 L 158.796875 536.546875 C 159.8125 536.546875 162.046875 536.648438 163.066406 536.140625 C 163.980469 535.632813 164.792969 534.511719 164.792969 533.394531 C 164.792969 529.328125 158.796875 531.160156 158.796875 526.277344 C 158.796875 523.941406 161.335938 520.382813 162.457031 518.554688 L 164.285156 515.503906 Z M 243.171875 458.980469 C 221.621094 460.910156 211.558594 478.296875 211.558594 498.527344 C 211.558594 518.757813 221.621094 536.140625 243.171875 538.070313 L 243.171875 532.175781 C 238.394531 530.445313 237.988281 527.398438 237.988281 524.855469 L 237.988281 472.195313 C 237.988281 469.65625 238.394531 466.605469 243.171875 464.875 Z M 247.75 538.070313 C 269.300781 536.140625 279.363281 518.757813 279.363281 498.527344 C 279.363281 478.296875 269.300781 460.910156 247.75 458.980469 L 247.75 464.875 C 252.527344 466.605469 252.933594 469.65625 252.933594 472.195313 L 252.933594 524.855469 C 252.933594 527.398438 252.527344 530.445313 247.75 532.175781 Z M 294.308594 520.484375 C 292.683594 533.191406 286.175781 529.226563 286.175781 533.597656 C 286.175781 536.75 290.34375 536.546875 291.460938 536.546875 L 303.050781 536.546875 C 304.167969 536.546875 308.335938 536.75 308.335938 533.597656 C 308.335938 529.226563 301.832031 533.191406 300.203125 520.484375 L 300.203125 503 L 294.511719 486.226563 L 294.308594 486.226563 Z M 336.292969 525.160156 C 336.292969 528.921875 336.394531 529.53125 332.835938 530.652344 C 331.515625 531.058594 330.601563 531.972656 330.601563 533.394531 C 330.601563 536.34375 333.957031 536.546875 334.363281 536.546875 L 363.132813 536.546875 C 363.539063 536.546875 366.894531 536.34375 366.894531 533.394531 C 366.894531 531.972656 365.980469 531.058594 364.65625 530.652344 C 361.097656 529.53125 361.199219 528.921875 361.199219 525.160156 L 361.199219 471.890625 C 361.199219 468.128906 361.097656 467.519531 364.65625 466.402344 C 365.980469 465.996094 366.894531 465.078125 366.894531 463.65625 C 366.894531 460.707031 363.539063 460.503906 363.132813 460.503906 L 336.292969 460.503906 Z M 285.769531 463.65625 C 285.769531 466.097656 288.515625 466.300781 289.734375 466.402344 C 291.460938 466.503906 291.867188 467.722656 292.785156 469.246094 C 293.597656 470.570313 294.105469 472.09375 294.613281 473.617188 L 315.859375 536.546875 L 318.808594 536.546875 L 331.71875 493.339844 L 331.71875 474.839844 L 331.515625 474.839844 L 326.941406 491.714844 L 326.738281 491.714844 L 315.859375 460.503906 L 290.039063 460.503906 C 288.820313 460.503906 285.769531 460.503906 285.769531 463.65625 Z M 430.941406 514.691406 C 430.328125 523.738281 426.671875 529.023438 417.316406 531.871094 L 417.316406 537.867188 C 423.925781 537.765625 436.023438 531.667969 436.835938 514.894531 L 436.835938 476.566406 C 438.460938 463.859375 444.96875 467.824219 444.96875 463.453125 C 444.96875 460.300781 440.800781 460.503906 439.683594 460.503906 L 428.09375 460.503906 C 426.976563 460.503906 422.808594 460.300781 422.808594 463.453125 C 422.808594 467.824219 429.3125 463.859375 430.941406 476.566406 Z M 412.742188 532.074219 C 405.117188 529.835938 406.03125 521.804688 406.03125 520.789063 L 406.03125 471.890625 C 406.03125 468.128906 405.929688 467.519531 409.488281 466.402344 C 410.8125 465.996094 411.726563 465.078125 411.726563 463.65625 C 411.726563 460.707031 408.371094 460.503906 407.964844 460.503906 L 379.195313 460.503906 C 378.789063 460.503906 375.433594 460.707031 375.433594 463.65625 C 375.433594 465.078125 376.347656 465.996094 377.667969 466.402344 C 381.226563 467.519531 381.125 468.128906 381.125 471.890625 L 381.125 520.078125 C 381.125 525.160156 382.347656 529.023438 391.496094 534.105469 C 398.511719 537.96875 404.710938 538.070313 412.742188 538.070313 Z M 412.742188 532.074219 "/>
<path style=" stroke:none;fill-rule:nonzero;fill:rgb(96.998596%,96.998596%,94.088745%);fill-opacity:1;" d="M 493.054688 525.160156 C 493.054688 528.921875 493.15625 529.53125 489.597656 530.652344 C 488.277344 531.058594 487.359375 531.972656 487.359375 533.394531 C 487.359375 536.34375 490.714844 536.546875 491.121094 536.546875 L 519.890625 536.546875 C 520.300781 536.546875 523.652344 536.34375 523.652344 533.394531 C 523.652344 531.972656 522.738281 531.058594 521.417969 530.652344 C 517.859375 529.53125 517.960938 528.921875 517.960938 525.160156 L 517.960938 460.503906 L 491.121094 460.503906 C 490.714844 460.503906 487.359375 460.707031 487.359375 463.65625 C 487.359375 465.078125 488.277344 465.996094 489.597656 466.402344 C 493.15625 467.519531 493.054688 468.128906 493.054688 471.890625 Z M 522.535156 466.402344 C 531.480469 467.824219 536.667969 472.804688 539.308594 481.039063 C 539.816406 482.566406 540.324219 483.582031 542.054688 483.582031 C 545.105469 483.582031 545.207031 481.648438 545.207031 481.140625 L 545.207031 460.503906 L 522.535156 460.503906 Z M 522.535156 500.761719 C 526.804688 501.878906 528.738281 505.84375 529.652344 509.707031 C 530.160156 511.4375 530.769531 513.0625 532.90625 513.0625 C 536.054688 513.0625 535.546875 509.402344 535.546875 508.589844 L 535.546875 486.632813 C 535.546875 485.816406 536.054688 482.160156 532.90625 482.160156 C 530.769531 482.160156 530.160156 483.785156 529.652344 485.511719 C 528.738281 489.375 526.804688 493.339844 522.535156 494.460938 Z M 582.515625 471.890625 C 582.515625 468.128906 582.414063 467.519531 585.972656 466.402344 C 587.292969 465.996094 588.207031 465.078125 588.207031 463.65625 C 588.207031 460.707031 584.851563 460.503906 584.445313 460.503906 L 555.675781 460.503906 C 555.269531 460.503906 551.914063 460.707031 551.914063 463.65625 C 551.914063 465.078125 552.832031 465.996094 554.152344 466.402344 C 557.710938 467.519531 557.609375 468.128906 557.609375 471.890625 L 557.609375 525.160156 C 557.609375 528.921875 557.710938 529.53125 554.152344 530.652344 C 552.832031 531.058594 551.914063 531.972656 551.914063 533.394531 C 551.914063 536.34375 555.269531 536.546875 555.675781 536.546875 L 584.445313 536.546875 C 584.851563 536.546875 588.207031 536.34375 588.207031 533.394531 C 588.207031 531.972656 587.292969 531.058594 585.972656 530.652344 C 582.414063 529.53125 582.515625 528.921875 582.515625 525.160156 Z M 604.472656 520.484375 C 602.847656 533.191406 596.339844 529.226563 596.339844 533.597656 C 596.339844 536.75 600.507813 536.546875 601.628906 536.546875 L 613.214844 536.546875 C 614.335938 536.546875 618.503906 536.75 618.503906 533.597656 C 618.503906 529.226563 611.996094 533.191406 610.371094 520.484375 L 610.371094 489.78125 L 604.675781 479.617188 L 604.472656 479.617188 Z M 651.542969 493.339844 L 657.234375 503.609375 L 657.4375 503.609375 L 657.4375 478.90625 C 657.4375 464.367188 665.773438 468.230469 665.773438 463.554688 C 665.773438 460.707031 662.417969 460.503906 661.402344 460.503906 L 647.578125 460.503906 C 646.5625 460.503906 643.207031 460.707031 643.207031 463.554688 C 643.207031 468.230469 651.542969 464.367188 651.542969 478.90625 Z M 627.855469 460.503906 L 601.730469 460.503906 C 599.59375 460.605469 596.542969 460.605469 596.542969 463.65625 C 596.542969 465.894531 597.867188 466.300781 599.59375 466.910156 C 602.949219 468.027344 603.457031 469.550781 605.082031 472.398438 L 642.292969 536.546875 L 657.4375 536.546875 L 657.4375 511.945313 Z M 691.800781 474.738281 L 691.496094 474.738281 L 679.296875 519.367188 C 677.363281 526.585938 674.617188 528.921875 672.484375 530.039063 C 670.246094 531.160156 668.519531 531.058594 668.519531 533.496094 C 668.519531 536.445313 672.179688 536.546875 674.210938 536.546875 L 685.902344 536.546875 C 687.9375 536.546875 691.191406 536.648438 691.191406 533.800781 C 691.191406 531.769531 689.765625 531.160156 688.140625 530.445313 C 684.683594 528.921875 683.261719 527.195313 684.886719 520.992188 L 694.441406 486.226563 Z M 707.355469 524.652344 C 708.269531 528.617188 707.863281 529.328125 705.21875 530.855469 C 703.898438 531.566406 703.289063 532.074219 703.289063 533.699219 C 703.289063 536.34375 706.234375 536.546875 708.269531 536.546875 L 733.582031 536.546875 C 735.511719 536.546875 739.171875 536.648438 739.171875 533.902344 C 739.171875 532.074219 738.054688 531.363281 736.632813 530.753906 C 733.785156 529.53125 733.683594 527.601563 733.074219 524.753906 L 717.824219 460.503906 L 695.359375 460.503906 L 694.035156 465.996094 L 704.304688 510.929688 L 691.902344 510.929688 L 690.476563 516.824219 L 705.320313 516.824219 Z M 751.675781 520.484375 C 750.050781 533.191406 743.542969 529.226563 743.542969 533.597656 C 743.542969 536.75 747.710938 536.546875 748.832031 536.546875 L 760.421875 536.546875 C 761.539063 536.546875 765.707031 536.75 765.707031 533.597656 C 765.707031 529.226563 759.199219 533.191406 757.574219 520.484375 L 757.574219 489.78125 L 751.878906 479.617188 L 751.675781 479.617188 Z M 798.746094 493.339844 L 804.4375 503.609375 L 804.640625 503.609375 L 804.640625 478.90625 C 804.640625 464.367188 812.976563 468.230469 812.976563 463.554688 C 812.976563 460.707031 809.625 460.503906 808.605469 460.503906 L 794.78125 460.503906 C 793.765625 460.503906 790.410156 460.707031 790.410156 463.554688 C 790.410156 468.230469 798.746094 464.367188 798.746094 478.90625 Z M 775.058594 460.503906 L 748.933594 460.503906 C 746.796875 460.605469 743.746094 460.605469 743.746094 463.65625 C 743.746094 465.894531 745.070313 466.300781 746.796875 466.910156 C 750.152344 468.027344 750.660156 469.550781 752.289063 472.398438 L 789.496094 536.546875 L 804.640625 536.546875 L 804.640625 511.945313 Z M 856.285156 464.875 C 865.738281 467.417969 870.519531 477.992188 872.246094 486.226563 C 872.652344 488.15625 873.871094 489.882813 876.007813 489.882813 C 879.261719 489.882813 879.261719 486.734375 879.261719 486.226563 L 879.261719 462.640625 C 879.261719 462.132813 879.261719 458.980469 876.007813 458.980469 C 874.585938 458.980469 873.871094 459.792969 873.261719 461.113281 C 872.652344 462.4375 872.042969 463.046875 870.519531 463.046875 C 867.875 463.046875 860.046875 459.082031 856.285156 458.980469 Z M 872.957031 517.738281 C 870.722656 525.261719 864.113281 530.445313 856.285156 532.175781 L 856.285156 538.070313 C 866.859375 538.476563 879.160156 526.277344 879.363281 517.941406 C 879.363281 516.113281 878.246094 514.488281 876.3125 514.488281 C 874.179688 514.488281 873.566406 516.011719 872.957031 517.738281 Z M 851.710938 532.175781 C 846.832031 530.957031 845.203125 526.789063 845.203125 522.519531 L 845.203125 474.332031 C 845.203125 470.0625 846.832031 465.894531 851.710938 464.875 L 851.710938 458.980469 C 831.988281 459.691406 818.773438 476.363281 818.773438 499.847656 C 818.773438 520.6875 829.347656 537.664063 851.710938 538.070313 Z M 918.398438 471.890625 C 918.398438 468.128906 918.296875 467.519531 921.855469 466.402344 C 923.179688 465.996094 924.09375 465.078125 924.09375 463.65625 C 924.09375 460.707031 920.738281 460.503906 920.332031 460.503906 L 891.5625 460.503906 C 891.15625 460.503906 887.800781 460.707031 887.800781 463.65625 C 887.800781 465.078125 888.714844 465.996094 890.035156 466.402344 C 893.59375 467.519531 893.492188 468.128906 893.492188 471.890625 L 893.492188 525.160156 C 893.492188 528.921875 893.59375 529.53125 890.035156 530.652344 C 888.714844 531.058594 887.800781 531.972656 887.800781 533.394531 C 887.800781 536.34375 891.15625 536.546875 891.5625 536.546875 L 920.332031 536.546875 C 920.738281 536.546875 924.09375 536.34375 924.09375 533.394531 C 924.09375 531.972656 923.179688 531.058594 921.855469 530.652344 C 918.296875 529.53125 918.398438 528.921875 918.398438 525.160156 Z M 951.132813 474.738281 L 950.828125 474.738281 L 938.628906 519.367188 C 936.699219 526.585938 933.953125 528.921875 931.820313 530.039063 C 929.582031 531.160156 927.855469 531.058594 927.855469 533.496094 C 927.855469 536.445313 931.515625 536.546875 933.546875 536.546875 L 945.238281 536.546875 C 947.273438 536.546875 950.523438 536.648438 950.523438 533.800781 C 950.523438 531.769531 949.101563 531.160156 947.476563 530.445313 C 944.019531 528.921875 942.59375 527.195313 944.222656 520.992188 L 953.777344 486.226563 Z M 966.6875 524.652344 C 967.605469 528.617188 967.195313 529.328125 964.554688 530.855469 C 963.230469 531.566406 962.621094 532.074219 962.621094 533.699219 C 962.621094 536.34375 965.570313 536.546875 967.605469 536.546875 L 992.917969 536.546875 C 994.847656 536.546875 998.507813 536.648438 998.507813 533.902344 C 998.507813 532.074219 997.390625 531.363281 995.964844 530.753906 C 993.121094 529.53125 993.019531 527.601563 992.410156 524.753906 L 977.160156 460.503906 L 954.691406 460.503906 L 953.371094 465.996094 L 963.640625 510.929688 L 951.234375 510.929688 L 949.8125 516.824219 L 964.65625 516.824219 Z M 1033.988281 471.890625 C 1033.988281 468.128906 1033.886719 467.519531 1037.445313 466.402344 C 1038.765625 465.996094 1039.679688 465.078125 1039.679688 463.65625 C 1039.679688 460.707031 1036.324219 460.503906 1035.917969 460.503906 L 1007.148438 460.503906 C 1006.742188 460.503906 1003.386719 460.707031 1003.386719 463.65625 C 1003.386719 465.078125 1004.304688 465.996094 1005.625 466.402344 C 1009.183594 467.519531 1009.082031 468.128906 1009.082031 471.890625 L 1009.082031 525.160156 C 1009.082031 528.921875 1009.183594 529.53125 1005.625 530.652344 C 1004.304688 531.058594 1003.386719 531.972656 1003.386719 533.394531 C 1003.386719 536.34375 1006.742188 536.546875 1007.148438 536.546875 L 1033.988281 536.546875 Z M 1038.5625 536.546875 L 1060.011719 536.546875 L 1060.011719 513.976563 C 1060.011719 512.046875 1059.808594 510.113281 1057.472656 510.113281 C 1055.335938 510.113281 1054.117188 510.726563 1053.609375 512.960938 C 1051.472656 522.414063 1046.796875 529.53125 1038.5625 530.652344 Z M 1038.5625 536.546875 "/>
</g>
</svg>
